<svg width="191" height="64" viewBox="0 0 191 64" fill="none" xmlns="http://www.w3.org/2000/svg">
<path fill-rule="evenodd" clip-rule="evenodd" d="M36.5714 0H27.4286V14.9391L19.9591 2.00146L12.0411 6.57289L19.5107 19.5106L6.57298 12.041L2.00155 19.959L14.9393 27.4286L0 27.4286V36.5714H14.9393L2.00155 44.041L6.57298 51.959L19.5107 44.4893L12.0411 57.4271L19.9591 61.9985L27.4286 49.061V64H36.5714V49.0609L44.0409 61.9985L51.9589 57.4271L44.4893 44.4893L57.4271 51.959L61.9985 44.041L49.0608 36.5714H64V27.4286H49.0608L61.9985 19.959L57.4271 12.041L44.4895 19.5105L51.9591 6.57292L44.0411 2.00149L36.5714 14.9394V0ZM32 43.4286C38.3118 43.4286 43.4286 38.3118 43.4286 32C43.4286 25.6882 38.3118 20.5714 32 20.5714C25.6882 20.5714 20.5714 25.6882 20.5714 32C20.5714 38.3118 25.6882 43.4286 32 43.4286Z" fill="#0091E2"/>
<path d="M99.1653 48.576C95.9333 48.576 93.0693 47.856 90.5733 46.416C88.1093 44.944 86.1733 42.912 84.7653 40.32C83.3573 37.696 82.6533 34.656 82.6533 31.2C82.6533 27.776 83.3573 24.768 84.7653 22.176C86.1733 19.552 88.1093 17.504 90.5733 16.032C93.0693 14.56 95.9333 13.824 99.1653 13.824C102.461 13.824 105.357 14.56 107.853 16.032C110.349 17.504 112.285 19.552 113.661 22.176C115.037 24.768 115.725 27.776 115.725 31.2C115.725 34.656 115.037 37.696 113.661 40.32C112.285 42.912 110.349 44.944 107.853 46.416C105.357 47.856 102.461 48.576 99.1653 48.576ZM99.2133 43.392C101.357 43.392 103.229 42.912 104.829 41.952C106.429 40.96 107.661 39.552 108.525 37.728C109.389 35.904 109.821 33.728 109.821 31.2C109.821 28.672 109.389 26.496 108.525 24.672C107.661 22.848 106.429 21.456 104.829 20.496C103.229 19.504 101.357 19.008 99.2133 19.008C97.0693 19.008 95.1973 19.504 93.5973 20.496C91.9973 21.456 90.7493 22.848 89.8533 24.672C88.9893 26.496 88.5573 28.672 88.5573 31.2C88.5573 33.728 88.9893 35.904 89.8533 37.728C90.7493 39.552 91.9973 40.96 93.5973 41.952C95.1973 42.912 97.0693 43.392 99.2133 43.392ZM121.161 48V23.808H126.297L126.825 28.32C127.401 27.264 128.121 26.368 128.985 25.632C129.849 24.864 130.857 24.272 132.009 23.856C133.193 23.44 134.489 23.232 135.897 23.232V29.328H133.881C132.921 29.328 132.009 29.456 131.145 29.712C130.281 29.936 129.529 30.32 128.889 30.864C128.281 31.376 127.801 32.096 127.449 33.024C127.097 33.92 126.921 35.056 126.921 36.432V48H121.161ZM155.839 48L145.135 34.752L154.735 23.808H161.599L149.647 37.104V32.64L163.039 48H155.839ZM140.239 48V13.44H145.999V48H140.239ZM174.272 48.576C172.288 48.576 170.64 48.24 169.328 47.568C168.016 46.896 167.04 46 166.4 44.88C165.76 43.76 165.44 42.544 165.44 41.232C165.44 39.696 165.824 38.368 166.592 37.248C167.392 36.128 168.56 35.264 170.096 34.656C171.632 34.016 173.52 33.696 175.76 33.696H181.856C181.856 32.416 181.68 31.36 181.328 30.528C180.976 29.664 180.432 29.024 179.696 28.608C178.96 28.192 178.016 27.984 176.864 27.984C175.552 27.984 174.432 28.288 173.504 28.896C172.576 29.472 172 30.368 171.776 31.584H166.112C166.304 29.856 166.88 28.384 167.84 27.168C168.8 25.92 170.064 24.96 171.632 24.288C173.232 23.584 174.976 23.232 176.864 23.232C179.136 23.232 181.072 23.632 182.672 24.432C184.272 25.2 185.488 26.32 186.32 27.792C187.184 29.232 187.616 30.976 187.616 33.024V48H182.72L182.144 44.112C181.824 44.752 181.408 45.344 180.896 45.888C180.416 46.432 179.856 46.912 179.216 47.328C178.576 47.712 177.84 48.016 177.008 48.24C176.208 48.464 175.296 48.576 174.272 48.576ZM175.568 44.016C176.496 44.016 177.312 43.856 178.016 43.536C178.752 43.184 179.376 42.704 179.888 42.096C180.432 41.456 180.848 40.752 181.136 39.984C181.424 39.216 181.616 38.4 181.712 37.536V37.44H176.384C175.264 37.44 174.336 37.584 173.6 37.872C172.864 38.128 172.336 38.512 172.016 39.024C171.696 39.536 171.536 40.128 171.536 40.8C171.536 41.472 171.696 42.048 172.016 42.528C172.336 43.008 172.8 43.376 173.408 43.632C174.016 43.888 174.736 44.016 175.568 44.016Z" fill="#0091E2"/>
</svg>
