<svg width="551" height="413" viewBox="0 0 551 413" fill="none" xmlns="http://www.w3.org/2000/svg">
<g clip-path="url(#clip0_128_12678)">
<path d="M550.6 411.25C550.6 411.91 550.07 412.44 549.41 412.44H1.19C0.53 412.44 0 411.91 0 411.25C0 410.59 0.53 410.06 1.19 410.06H549.41C550.07 410.06 550.6 410.59 550.6 411.25Z" fill="#2E2E43"/>
<path d="M436.66 84.7798H114.08C109.62 84.7798 105.99 81.1498 105.99 76.6898V51.8498C105.99 47.3898 109.62 43.7598 114.08 43.7598H436.66C441.12 43.7598 444.75 47.3898 444.75 51.8498V76.6998C444.74 81.1598 441.12 84.7798 436.66 84.7798Z" fill="white" stroke="#BAB7C9" stroke-width="2" stroke-linecap="round" stroke-linejoin="round"/>
<path d="M436.66 237.99H114.08C109.62 237.99 105.99 234.36 105.99 229.9V205.05C105.99 200.59 109.62 196.96 114.08 196.96H436.66C441.12 196.96 444.75 200.59 444.75 205.05V229.9C444.74 234.36 441.12 237.99 436.66 237.99Z" fill="white" stroke="#BAB7C9" stroke-width="2" stroke-linecap="round" stroke-linejoin="round"/>
<path d="M207.66 347.99H113.08C108.62 347.99 104.99 344.36 104.99 339.9V315.05C104.99 310.59 108.62 306.96 113.08 306.96H207.66C212.12 306.96 215.75 310.59 215.75 315.05V339.9C215.74 344.36 212.12 347.99 207.66 347.99Z" fill="#F2BD54"/>
<path d="M106.7 1H177.45" stroke="#BAB7C9" stroke-width="2" stroke-linecap="round" stroke-linejoin="round"/>
<path d="M106.7 154.21H238.12" stroke="#BAB7C9" stroke-width="2" stroke-linecap="round" stroke-linejoin="round"/>
<path d="M397.598 367.234L386.477 374.344L396.565 390.124L407.686 383.014L397.598 367.234Z" fill="#F1A1A4"/>
<path d="M362.35 155.1L348.29 159.9L348.07 139.61L360.86 139.47L362.35 155.1Z" fill="#F1A1A4"/>
<path d="M349.71 145.21C357.47 145.21 363.76 138.919 363.76 131.16C363.76 123.4 357.47 117.11 349.71 117.11C341.951 117.11 335.66 123.4 335.66 131.16C335.66 138.919 341.951 145.21 349.71 145.21Z" fill="#F1A1A4"/>
<path d="M353.56 129.72C351.21 129.67 349.64 127.32 348.7 125.15C347.76 123 346.79 120.51 344.61 119.63C342.82 118.92 339.73 123.9 338.31 122.6C336.82 121.24 338.18 114.16 339.73 112.88C341.28 111.6 343.41 111.33 345.4 111.21C350.3 110.93 355.22 111.27 360.03 112.22C363 112.8 366.07 113.71 368.23 115.83C370.97 118.52 371.71 122.62 371.95 126.45C372.2 130.37 372.01 134.49 370.14 137.95C368.27 141.41 364.3 143.98 360.46 143.15C360.05 141.07 360.41 138.93 360.54 136.81C360.67 134.7 360.48 132.41 359.17 130.74C357.86 129.07 355.1 128.43 353.61 129.94" fill="#2F2E43"/>
<path d="M370.9 134.4C372.29 133.36 373.96 132.47 375.69 132.67C377.56 132.87 379.16 134.4 379.66 136.22C380.16 138.04 379.64 140.05 378.51 141.55C377.38 143.05 375.67 144.05 373.85 144.57C372.8 144.87 371.65 144.99 370.64 144.57C369.15 143.95 368.34 142.07 368.9 140.56" fill="#2F2E43"/>
<path d="M318.6 267.17C317.72 271.79 319.48 276 322.54 276.55C325.59 277.1 328.79 273.79 329.68 269.17C330.06 267.33 329.98 265.42 329.43 263.61L340.24 191.13L325.67 188.56L320.88 262.08C319.71 263.58 318.92 265.33 318.6 267.19V267.17Z" fill="#F1A1A4"/>
<path d="M348.03 150.59L338.11 150.7C331.11 151.83 329.24 155.6 327.73 162.53C325.41 173.09 322.46 187.17 323.08 187.37C324.07 187.69 341.04 195.45 349.64 193.53L348.03 150.59Z" fill="#4487FC"/>
<path d="M360.213 380.932L347.014 381.08L347.224 399.808L360.423 399.66L360.213 380.932Z" fill="#F1A1A4"/>
<path d="M334.46 411.32C333.07 411.34 331.84 411.32 330.91 411.24C327.39 410.96 324.03 408.41 322.32 406.91C321.55 406.24 321.3 405.15 321.68 404.22C321.95 403.55 322.51 403.04 323.21 402.83L332.45 400.08L347.35 389.79L347.52 390.09C347.58 390.2 349.09 392.84 349.6 394.63C349.79 395.31 349.76 395.88 349.47 396.32C349.28 396.62 349 396.81 348.78 396.92C349.05 397.2 349.91 397.77 352.54 398.16C356.37 398.73 357.14 394.75 357.16 394.58L357.19 394.44L357.3 394.36C359.11 393.16 360.22 392.62 360.61 392.73C360.86 392.79 361.25 392.92 362.46 403.71C362.57 404.05 363.36 406.52 362.87 408.91C362.34 411.5 351.02 410.73 348.76 410.56C348.7 410.57 340.24 411.27 334.44 411.33L334.46 411.32Z" fill="#2F2E43"/>
<path d="M383.21 408.21C381.66 408.23 380.23 408.05 379.21 407.89C378.21 407.72 377.42 406.94 377.25 405.94C377.12 405.22 377.33 404.5 377.81 403.96L384.19 396.74L391.38 380.12L391.68 380.28C391.79 380.34 394.46 381.78 395.85 383.03C396.38 383.5 396.64 384 396.64 384.53C396.64 384.89 396.5 385.19 396.37 385.39C396.75 385.48 397.78 385.51 400.22 384.45C403.77 382.91 402.31 379.12 402.25 378.97L402.2 378.84L402.26 378.72C403.16 376.75 403.82 375.7 404.21 375.58C404.46 375.52 404.85 375.39 411.59 383.91C411.86 384.14 413.85 385.82 414.69 388.1C415.6 390.58 405.61 395.92 403.59 396.96C403.53 397.01 393.08 404.78 388.79 407C387.08 407.88 385.05 408.17 383.21 408.19V408.21Z" fill="#2F2E43"/>
<path d="M368.18 224.19L331.21 224.6L328.24 259.02L344.33 385.93L363.2 385.72L354.84 312.41L386.19 378.33L402.83 366.4L378.24 304.8C378.24 304.8 386.18 250.81 379.32 237.47C372.46 224.12 368.18 224.17 368.18 224.17V224.19Z" fill="#2F2E43"/>
<path d="M386.58 226.08L327.87 226.73L344.64 150.63L370.23 150.34L386.58 226.08Z" fill="#4487FC"/>
<path d="M392.32 266.35C393.31 270.96 391.64 275.2 388.6 275.81C385.55 276.43 382.28 273.2 381.3 268.59C380.88 266.75 380.92 264.85 381.42 263.03L368.99 190.8L383.49 187.91L389.92 261.31C391.13 262.79 391.95 264.52 392.32 266.37V266.35Z" fill="#F1A1A4"/>
<path d="M360.31 150.45L370.23 150.34C377.25 151.33 379.2 155.05 380.87 161.94C383.42 172.45 386.68 186.46 386.07 186.67C385.08 187.01 368.29 195.14 359.66 193.41L360.32 150.44H360.31V150.45Z" fill="#4487FC"/>
</g>
<defs>
<clipPath id="clip0_128_12678">
<rect width="550.6" height="412.44" fill="white"/>
</clipPath>
</defs>
</svg>
